<?xml version="1.0" encoding="utf-8"?>
<!-- Generator: Adobe Illustrator 27.4.0, SVG Export Plug-In . SVG Version: 6.00 Build 0)  -->
<svg version="1.1" id="Layer_1" xmlns="http://www.w3.org/2000/svg" xmlns:xlink="http://www.w3.org/1999/xlink" x="0px" y="0px"
	 viewBox="0 0 288 288" style="enable-background:new 0 0 288 288;" xml:space="preserve">
<style type="text/css">
	.st0{stroke:#000000;stroke-miterlimit:10;}
	.st1{fill:#FFFFFF;}
	.st2{fill:#E92629;}
</style>
<rect class="st0" width="288" height="288"/>
<g id="_x31_0_2_">
	<g id="_x31__2_">
		<polygon class="st1" points="109.88,206.5 92.19,206.5 92.19,99.32 76.2,99.32 76.2,81.64 109.88,81.64 		"/>
	</g>
	<path class="st2" d="M174.59,154.46l35.97-35.97c-3.94-19.2-19.21-34.28-38.56-36.7c-0.37-0.05-0.73-0.08-1.1-0.12v17.83
		c8.36,1.42,15.36,6.84,19.36,14.3l-28.17,28.17L174.59,154.46z"/>
	<path class="st1" d="M193.75,147.81l-0.08,11.76v0.06c0,16.08-12.24,29.17-27.29,29.17c-15.04,0-27.28-13.07-27.29-29.14l0.2-31.3
		v-0.06c0-14.29,9.71-26.45,22.77-28.77V81.68c-0.38,0.04-0.77,0.08-1.15,0.13c-22.39,2.94-39.29,22.91-39.3,46.45l-0.2,31.3v0.06
		c0,25.83,20.18,46.85,44.97,46.85c24.79,0,44.96-21,44.97-46.82l0.19-29.65L193.75,147.81z"/>
</g>
</svg>
