<?xml version="1.0" encoding="UTF-8"?>
<svg id="Layer_2" data-name="Layer 2" xmlns="http://www.w3.org/2000/svg" viewBox="0 0 1005.72 1005.72">
  <defs>
    <style>
      .cls-1 {
        fill: #fff;
      }

      .cls-2 {
        stroke: #231f20;
        stroke-miterlimit: 10;
      }

      .cls-3 {
        fill: #e82429;
      }
    </style>
  </defs>
  <g id="_10_Black" data-name="10 Black">
    <rect class="cls-2" x=".5" y=".5" width="1004.72" height="1004.72"/>
    <g id="_10" data-name="10">
      <g id="_1" data-name="1">
        <polygon class="cls-1" points="383.83 720.91 322.13 720.91 322.13 347 266.32 347 266.32 285.31 383.83 285.31 383.83 720.91"/>
      </g>
      <path class="cls-3" d="m609.59,539.34l125.5-125.5c-13.74-66.99-67.01-119.58-134.52-128.04-1.28-.16-2.56-.29-3.84-.42v62.21c29.16,4.94,53.57,23.86,67.52,49.87l-98.26,98.26,43.61,43.61Z"/>
      <path class="cls-1" d="m676.41,516.15l-.27,41.02v.2c0,56.11-42.71,101.75-95.2,101.75s-95.15-45.59-95.2-101.66l.71-109.19v-.2c0-49.87,33.87-92.26,79.42-100.36v-62.27c-1.34.14-2.69.29-4.02.46-78.13,10.26-137.05,79.92-137.1,162.06l-.71,109.2v.2c0,90.13,70.38,163.45,156.9,163.45s156.85-73.26,156.9-163.35l.67-103.43-62.1,62.1Z"/>
    </g>
  </g>
</svg>